<svg width="153" height="172" viewBox="0 0 153 172" fill="none" xmlns="http://www.w3.org/2000/svg">
<path d="M144.522 124.647V125.483C145.358 142.412 149.12 167.492 127.593 170.209C115.262 171.672 100.005 166.447 86.002 165.402C73.462 163.939 59.668 164.984 47.128 160.804C15.151 151.19 0.103 113.988 9.926 83.265C23.511 30.597 99.378 0.918997 134.908 48.571C152.882 71.352 143.686 98.94 144.522 124.647ZM86.42 101.03C92.69 96.014 91.227 84.31 82.24 83.683C75.134 82.638 68.028 90.162 69.909 97.477C71.372 104.792 81.195 106.046 86.211 101.239L86.42 101.03Z" fill="#FEE3E5"/>
</svg>
