<svg width="230" height="39" viewBox="0 0 230 39" fill="none" xmlns="http://www.w3.org/2000/svg">
<path d="M3.536 39C2.816 39 2.288 38.808 1.76 38.28L1.28 37.8C0.752 37.272 0.56 36.744 0.56 36.024V3.576C0.56 2.856 0.752 2.328 1.28 1.8L1.76 1.32C2.288 0.791997 2.816 0.599999 3.536 0.599999H3.728C4.448 0.599999 4.976 0.791997 5.504 1.32L5.984 1.8C6.512 2.328 6.704 2.856 6.704 3.576V30.264C6.704 30.984 6.896 31.512 7.424 32.04L7.904 32.52C8.432 33.048 8.96 33.24 9.68 33.24H22.544C23.264 33.24 23.792 33.432 24.32 33.96L24.8 34.44C25.328 34.968 25.52 35.4 25.52 36.072V36.168C25.52 36.84 25.328 37.272 24.8 37.8L24.32 38.28C23.792 38.808 23.264 39 22.544 39H3.536ZM33.0391 39C32.3191 39 31.7911 38.808 31.2631 38.28L30.7831 37.8C30.2551 37.272 30.0631 36.84 30.0631 36.168V36.072C30.0631 35.4 30.2551 34.968 30.7831 34.44L31.2631 33.96C31.7911 33.432 32.3191 33.24 33.0391 33.24H36.0151C36.7831 33.24 37.4071 33.144 37.9351 32.616L38.4151 32.136C38.8951 31.656 38.9911 31.032 38.9911 30.264V9.336C38.9911 8.568 39.0871 8.088 38.4151 7.416L37.9351 6.936C37.4551 6.456 36.7831 6.36 36.0151 6.36H33.0391C32.3191 6.36 31.7911 6.168 31.2631 5.64L30.7831 5.16C30.2551 4.632 30.0631 4.2 30.0631 3.528V3.432C30.0631 2.76 30.2551 2.328 30.7831 1.8L31.2631 1.32C31.7911 0.791997 32.3191 0.599999 33.0391 0.599999H50.9431C51.6631 0.599999 52.1911 0.791997 52.7191 1.32L53.1991 1.8C53.7271 2.328 53.9191 2.76 53.9191 3.432V3.528C53.9191 4.2 53.7271 4.632 53.1991 5.16L52.7191 5.64C52.1911 6.168 51.6631 6.36 50.9431 6.36H47.9671C47.1991 6.36 46.5271 6.456 46.0471 6.936L45.5671 7.416C45.0871 7.896 44.9911 8.568 44.9911 9.336V30.264C44.9911 31.032 45.0871 31.704 45.5671 32.184L46.0471 32.664C46.5271 33.144 47.1991 33.24 47.9671 33.24H50.9431C51.6631 33.24 52.1911 33.432 52.7191 33.96L53.1991 34.44C53.7271 34.968 53.9191 35.4 53.9191 36.072V36.168C53.9191 36.84 53.7271 37.272 53.1991 37.8L52.7191 38.28C52.1911 38.808 51.6631 39 50.9431 39H33.0391ZM64.8016 39C64.0816 39 63.5536 38.808 63.0256 38.28L62.5456 37.8C62.0176 37.272 61.8256 36.744 61.8256 36.024V3.576C61.8256 2.856 62.0176 2.328 62.5456 1.8L63.0256 1.32C63.5536 0.791997 64.0816 0.599999 64.8016 0.599999H79.4896C80.2096 0.599999 80.7376 0.791997 81.2656 1.32L87.9856 8.04C88.5136 8.568 88.7056 9.096 88.7056 9.816V13.464C88.7056 14.184 88.5136 14.712 87.9856 15.24L85.1056 18.12C84.5776 18.648 84.3856 19.128 84.3856 19.8C84.3856 20.472 84.5776 20.952 85.1056 21.48L87.9856 24.36C88.5136 24.888 88.7056 25.416 88.7056 26.136V29.784C88.7056 30.504 88.5136 31.032 87.9856 31.56L81.2656 38.28C80.7376 38.808 80.2096 39 79.4896 39H64.8016ZM67.9696 30.264C67.9696 30.984 68.1616 31.512 68.6896 32.04L69.1696 32.52C69.6976 33.048 70.2256 33.24 70.9456 33.24H76.5616C80.2096 33.24 82.2256 31.224 82.2256 27.96C82.2256 24.696 80.2096 22.68 76.5616 22.68H70.9456C70.2256 22.68 69.6976 22.872 69.1696 23.4L68.6896 23.88C68.1616 24.408 67.9696 24.936 67.9696 25.656V30.264ZM67.9696 13.944C67.9696 14.664 68.1616 15.192 68.6896 15.72L69.1696 16.2C69.6976 16.728 70.2256 16.92 70.9456 16.92H76.5616C80.2096 16.92 82.2256 14.904 82.2256 11.64C82.2256 8.376 80.2096 6.36 76.5616 6.36H70.9456C70.2256 6.36 69.6976 6.552 69.1696 7.08L68.6896 7.56C68.1616 8.088 67.9696 8.616 67.9696 9.336V13.944ZM100.099 39C99.3785 39 98.8505 38.808 98.3225 38.28L97.8425 37.8C97.3145 37.272 97.1225 36.744 97.1225 36.024V3.576C97.1225 2.856 97.3145 2.328 97.8425 1.8L98.3225 1.32C98.8505 0.791997 99.3785 0.599999 100.099 0.599999H114.787C115.507 0.599999 116.035 0.791997 116.562 1.32L123.283 8.04C123.811 8.568 124.003 9.096 124.003 9.816V14.904C124.003 15.624 123.811 16.152 123.283 16.68L116.707 23.256C116.227 23.736 116.227 24.36 116.707 24.84L123.283 31.416C123.811 31.944 124.003 32.472 124.003 33.192V36.024C124.003 36.744 123.811 37.272 123.283 37.8L122.803 38.28C122.275 38.808 121.747 39 121.027 39H120.835C120.115 39 119.587 38.808 119.059 38.28L118.579 37.8C118.051 37.272 117.859 36.744 117.859 36.024V35.016C117.859 34.296 117.667 33.768 117.139 33.24L108.739 24.84C108.211 24.312 107.683 24.12 106.963 24.12H106.243C105.523 24.12 104.995 24.312 104.467 24.84L103.987 25.32C103.459 25.848 103.267 26.376 103.267 27.096V36.024C103.267 36.744 103.075 37.272 102.547 37.8L102.067 38.28C101.539 38.808 101.011 39 100.291 39H100.099ZM103.267 15.624C103.267 16.344 103.459 16.872 103.987 17.4L104.467 17.88C104.995 18.408 105.523 18.6 106.243 18.6H111.427C115.075 18.6 117.523 16.056 117.523 12.504V12.36C117.523 8.856 115.075 6.36 111.427 6.36H106.243C105.523 6.36 104.995 6.552 104.467 7.08L103.987 7.56C103.459 8.088 103.267 8.616 103.267 9.336V15.624ZM135.395 39C134.675 39 134.147 38.808 133.619 38.28L133.139 37.8C132.611 37.272 132.419 36.744 132.419 36.024V9.816C132.419 9.096 132.611 8.568 133.139 8.04L139.859 1.32C140.387 0.791997 140.915 0.599999 141.635 0.599999H150.083C150.803 0.599999 151.331 0.791997 151.859 1.32L158.579 8.04C159.107 8.568 159.299 9.096 159.299 9.816V36.024C159.299 36.744 159.107 37.272 158.579 37.8L158.099 38.28C157.571 38.808 157.043 39 156.323 39H156.131C155.411 39 154.883 38.808 154.355 38.28L153.875 37.8C153.347 37.272 153.155 36.744 153.155 36.024V27.384C153.155 26.616 153.059 25.944 152.579 25.464L152.099 24.984C151.619 24.504 150.947 24.408 150.179 24.408H141.539C140.771 24.408 140.099 24.504 139.619 24.984L139.139 25.464C138.659 25.944 138.563 26.616 138.563 27.384V36.024C138.563 36.744 138.371 37.272 137.843 37.8L137.363 38.28C136.835 38.808 136.307 39 135.587 39H135.395ZM138.563 15.864C138.563 16.632 138.659 17.304 139.139 17.784L139.619 18.264C140.099 18.744 140.771 18.84 141.539 18.84H150.179C150.947 18.84 151.619 18.744 152.099 18.264L152.579 17.784C153.059 17.304 153.155 16.632 153.155 15.864V13.56C153.155 9.288 150.275 6.36 146.195 6.36H145.523C141.443 6.36 138.563 9.288 138.563 13.56V15.864ZM171.395 39C170.675 39 170.147 38.808 169.619 38.28L169.139 37.8C168.611 37.272 168.419 36.744 168.419 36.024V3.576C168.419 2.856 168.611 2.328 169.139 1.8L169.619 1.32C170.147 0.791997 170.675 0.599999 171.395 0.599999H186.083C186.803 0.599999 187.331 0.791997 187.859 1.32L194.579 8.04C195.107 8.568 195.299 9.096 195.299 9.816V14.904C195.299 15.624 195.107 16.152 194.579 16.68L188.003 23.256C187.523 23.736 187.523 24.36 188.003 24.84L194.579 31.416C195.107 31.944 195.299 32.472 195.299 33.192V36.024C195.299 36.744 195.107 37.272 194.579 37.8L194.099 38.28C193.571 38.808 193.043 39 192.323 39H192.131C191.411 39 190.883 38.808 190.355 38.28L189.875 37.8C189.347 37.272 189.155 36.744 189.155 36.024V35.016C189.155 34.296 188.963 33.768 188.435 33.24L180.035 24.84C179.507 24.312 178.979 24.12 178.259 24.12H177.539C176.819 24.12 176.291 24.312 175.763 24.84L175.283 25.32C174.755 25.848 174.563 26.376 174.563 27.096V36.024C174.563 36.744 174.371 37.272 173.843 37.8L173.363 38.28C172.835 38.808 172.307 39 171.587 39H171.395ZM174.563 15.624C174.563 16.344 174.755 16.872 175.283 17.4L175.763 17.88C176.291 18.408 176.819 18.6 177.539 18.6H182.723C186.371 18.6 188.819 16.056 188.819 12.504V12.36C188.819 8.856 186.371 6.36 182.723 6.36H177.539C176.819 6.36 176.291 6.552 175.763 7.08L175.283 7.56C174.755 8.088 174.563 8.616 174.563 9.336V15.624ZM215.86 39C215.14 39 214.612 38.808 214.084 38.28L213.604 37.8C213.076 37.272 212.884 36.744 212.884 36.024V23.016C212.884 22.296 212.692 21.768 212.164 21.24L203.236 12.312C202.708 11.784 202.516 11.256 202.516 10.536V3.576C202.516 2.856 202.708 2.328 203.236 1.8L203.716 1.32C204.244 0.791997 204.772 0.599999 205.492 0.599999H205.684C206.404 0.599999 206.932 0.791997 207.46 1.32L207.94 1.8C208.468 2.328 208.66 2.856 208.66 3.576V8.568C208.66 9.288 208.852 9.816 209.38 10.344L214.948 15.912C215.62 16.584 216.292 16.584 216.964 15.912L222.532 10.344C223.06 9.816 223.252 9.288 223.252 8.568V3.576C223.252 2.856 223.444 2.328 223.972 1.8L224.452 1.32C224.98 0.791997 225.508 0.599999 226.228 0.599999H226.42C227.14 0.599999 227.668 0.791997 228.196 1.32L228.676 1.8C229.204 2.328 229.396 2.856 229.396 3.576V10.536C229.396 11.256 229.204 11.784 228.676 12.312L219.748 21.24C219.22 21.768 219.028 22.296 219.028 23.016V36.024C219.028 36.744 218.836 37.272 218.308 37.8L217.828 38.28C217.3 38.808 216.772 39 216.052 39H215.86Z" fill="#C2F751"/>
</svg>
