<svg width="698" height="121" viewBox="0 0 698 121" fill="none" xmlns="http://www.w3.org/2000/svg">
<path d="M77.2711 120.402C82.1411 121.457 90.1723 120.564 97.1549 118.226C99.7995 117.333 103.589 115.612 105.105 114.622C105.927 114.086 107.153 113.063 108.04 112.137C109.346 110.822 109.653 110.416 109.975 109.523C110.54 108.029 110.539 105.886 109.991 104.765C109.491 103.726 108.168 102.687 106.507 102.021C105.298 101.534 105.072 101.502 103.202 101.502C101.057 101.485 100.235 101.567 98.4449 101.957C96.9293 102.298 96.2684 102.297 96.2681 101.957C96.2681 101.81 96.6228 100.511 97.0582 99.066C97.8967 96.2895 98.5903 93.7401 98.7515 92.7984C98.7999 92.4901 98.8799 92.0522 98.9283 91.8248C99.396 89.5028 99.3643 86.6931 98.8482 84.4361C98.1224 81.1725 94.5586 77.2919 89.9791 74.7427C89.1406 74.2881 87.7376 73.4439 86.8668 72.8755C85.3965 71.9211 85.0632 68.326 87.3346 69.0269C87.7703 69.1731 89.1083 69.482 90.3014 69.7418C92.3654 70.1801 92.6718 70.1961 96.026 70.1636C98.977 70.1312 99.8481 70.0663 101.235 69.774C108.959 68.1015 115.377 63.6527 117.812 58.2945C118.812 56.1187 119.264 52.9686 118.844 51.0201C118.296 48.341 116.167 45.6455 113.668 44.4439C111.878 43.5834 111.055 43.4212 109.055 43.4537C106.104 43.5025 103.605 44.3959 101.347 46.2144C99.9124 47.367 99.2834 48.0653 97.3971 50.5816C95.3974 53.2607 93.6229 55.047 92.7037 55.2906C92.1073 55.4529 91.9782 55.453 91.817 55.2095C91.559 54.8523 91.7525 54.1864 93.2037 50.3384C93.8487 48.6335 94.6873 46.3436 95.0582 45.2232C95.4452 44.1028 96.3326 41.6182 97.0582 39.6861C98.8319 34.8478 99.1056 33.9221 100.315 28.2554C100.879 25.5926 101.106 20.5105 100.767 17.9937C100.203 13.8046 98.074 9.29056 95.2681 6.41656C91.9785 2.99054 88.2372 1.17204 82.7867 0.327698C80.5613 -0.0295184 76.3038 -0.11142 73.7721 0.164612C66.4832 0.895302 58.8884 3.51042 52.4703 7.47223C47.8422 10.3137 43.4228 14.6485 41.7457 17.9771C39.988 21.4519 39.8597 25.3171 41.4078 28.4996C42.2786 30.3016 44.0038 31.9736 45.9869 32.9478C48.5832 34.2306 49.5027 34.4097 53.6148 34.4097L57.1627 34.4254L57.1139 34.9937C57.0332 36.0978 55.1147 39.0533 51.3414 43.9244C45.2944 51.7179 43.7943 54.4947 43.5846 58.2291C43.4233 61.0868 44.3909 63.7662 46.7291 66.9C49.277 70.2935 52.4057 72.908 55.0826 73.8336C56.324 74.2719 56.6305 74.3043 58.6783 74.3043C61.0326 74.3043 61.7746 74.191 63.1129 73.5416C65.1286 72.5836 66.4346 71.1054 67.0797 69.0757C67.4021 68.0367 67.4347 67.6791 67.3541 66.023C67.3057 64.9842 67.2252 63.9129 67.1607 63.6529C66.8543 62.0779 66.3063 60.3078 65.5162 58.2945C64.4519 55.5991 64.3386 54.9658 64.7418 54.2027C65.2578 53.2447 66.3544 53.342 67.1607 54.4136C68.1605 55.7288 69.8531 60.9734 70.4176 64.4644C70.6433 65.877 70.515 68.3452 70.1441 69.6929C69.4507 72.2584 68.112 74.1745 66.0318 75.5709C63.7258 77.1296 61.6612 77.6168 57.9683 77.4869C53.5501 77.3407 51.276 76.3666 47.3736 72.9244C46.4551 72.1131 45.8428 71.6905 45.5846 71.69C45.0847 71.69 43.6815 73.1678 41.4078 76.0904C40.6867 77.2638 38.0409 78.3425 35.5211 75.4576C29.99 69.1251 26.8136 66.6563 23.5562 66.1529C19.5731 65.5521 15.7354 68.443 11.4137 75.2789C11.0557 75.8487 10.7124 76.4247 10.3795 77.0005H21.4459C22.5307 77.0006 23.4097 77.8796 23.4097 78.9644C23.4097 80.0492 22.5307 80.9282 21.4459 80.9283H8.31991C6.52809 84.7374 5.45165 88.2988 5.46248 90.688C5.46254 94.0652 6.60809 95.9646 9.05916 96.7115C9.8656 96.955 11.9135 96.8905 12.8971 96.5982C15.1868 95.9162 16.7999 94.8119 21.9439 90.4117C22.9112 89.5677 23.3464 89.4375 24.0719 89.7945C24.604 90.038 26.9904 91.8897 28.1031 92.9127C31.2798 95.819 35.8599 98.7571 38.3756 99.5367C42.0523 100.657 48.6803 100.008 53.6148 96.7115C58.3022 93.8212 69.0187 88.363 74.3853 89.649C78.0326 91.771 78.3482 94.2528 77.5621 97.9947C77.3524 99.0828 75.8684 105.431 75.0621 108.808C74.0139 113.127 73.8047 114.443 73.8853 115.969C74.0144 118.405 75.1911 119.947 77.2711 120.402ZM86.984 31.0093C85.9712 32.2097 83.8053 32.568 82.0601 31.8355C80.2214 31.056 79.1462 29.9487 78.4762 28.1246C77.8373 26.4097 78.1795 23.3698 79.2701 21.2183C79.8311 20.1114 79.7689 19.7838 78.9586 19.3629C78.3816 19.0821 75.2812 18.0066 74.0347 17.6636C72.9284 17.3674 72.1965 15.6519 72.773 14.7476C73.0074 14.4201 74.0818 13.7661 74.4556 13.7505C74.5035 13.7512 75.0637 14.031 75.7017 14.358C78.9584 16.1197 86.3599 18.6926 90.3023 19.4566C91.9696 19.784 92.7495 20.1739 93.0767 20.8287C93.5906 21.9198 92.9051 23.0726 91.7213 23.1197C91.4252 23.1197 90.5052 22.9796 89.6949 22.7925C87.981 22.4028 87.2488 22.4814 86.6099 23.0738C85.9711 23.6819 85.5032 25.0696 85.3941 26.6597C85.2851 28.5613 85.5814 29.0138 87.108 29.2476C87.4497 29.3098 87.7608 29.3871 87.8092 29.4185C87.9182 29.5432 87.4514 30.4637 86.984 31.0093Z" fill="#C2F751"/>
<rect y="73.0714" width="25.7508" height="3.92857" rx="1.96428" fill="#C2F751"/>
<path d="M226.357 104.088C224.821 104.088 223.861 103.512 222.997 102.456L217.621 97.08C216.277 95.736 214.933 95.736 213.589 97.08L213.109 97.56C212.053 98.616 210.997 99 209.557 99H192.661C191.221 99 190.165 98.616 189.109 97.56L175.669 84.12C174.613 83.064 174.229 82.008 174.229 80.568V40.632C174.229 39.192 174.613 38.136 175.669 37.08L189.109 23.64C190.165 22.584 191.221 22.2 192.661 22.2H209.557C210.997 22.2 212.053 22.584 213.109 23.64L226.549 37.08C227.605 38.136 227.989 39.192 227.989 40.632V80.568C227.989 82.008 227.605 83.064 226.549 84.12L225.397 85.272C224.053 86.616 224.053 87.96 225.397 89.304L230.773 94.68C231.829 95.544 232.405 96.504 232.405 98.04V99.192C232.405 100.632 231.829 101.496 230.773 102.456C229.813 103.512 228.949 104.088 227.509 104.088H226.357ZM186.517 73.08C186.517 81.624 192.277 87.48 200.437 87.48H203.029C205.621 87.48 206.293 85.752 204.469 83.928L196.309 75.768C195.253 74.904 194.677 73.944 194.677 72.408V71.256C194.677 69.816 195.253 68.952 196.309 67.992C197.269 66.936 198.133 66.36 199.573 66.36H200.725C202.261 66.36 203.221 66.936 204.085 67.992L212.149 76.056C213.973 77.88 215.701 77.208 215.701 74.616V48.12C215.701 39.576 209.941 33.72 201.781 33.72H200.437C192.277 33.72 186.517 39.576 186.517 48.12V73.08ZM263.797 99C262.261 99 261.301 98.52 260.245 97.464L247.669 84.888C246.613 83.832 246.229 82.776 246.229 81.336V28.152C246.229 26.712 246.613 25.656 247.669 24.6L248.629 23.64C249.685 22.584 250.741 22.2 252.181 22.2H252.565C254.005 22.2 255.061 22.584 256.117 23.64L257.077 24.6C258.133 25.656 258.517 26.712 258.517 28.152V77.592C258.517 79.032 258.901 80.088 259.957 81.144L262.453 83.64C263.797 84.984 265.141 84.984 266.485 83.64L269.365 80.76C270.421 79.704 270.805 78.648 270.805 77.208V54.552C270.805 53.112 271.189 52.056 272.245 51L273.205 50.04C274.261 48.984 275.317 48.6 276.757 48.6H277.141C278.581 48.6 279.637 48.984 280.693 50.04L281.653 51C282.709 52.056 283.093 53.112 283.093 54.552V77.208C283.093 78.648 283.477 79.704 284.533 80.76L287.413 83.64C288.757 84.984 290.101 84.984 291.445 83.64L293.941 81.144C294.997 80.088 295.381 79.032 295.381 77.592V28.152C295.381 26.712 295.765 25.656 296.821 24.6L297.781 23.64C298.837 22.584 299.893 22.2 301.333 22.2H301.717C303.157 22.2 304.213 22.584 305.269 23.64L306.229 24.6C307.285 25.656 307.669 26.712 307.669 28.152V81.336C307.669 82.776 307.285 83.832 306.229 84.888L293.653 97.464C292.597 98.52 291.637 99 290.101 99H288.757C287.221 99 286.261 98.52 285.205 97.464L276.949 89.208L268.693 97.464C267.637 98.52 266.677 99 265.141 99H263.797ZM331.869 99C330.429 99 329.373 98.616 328.317 97.56L327.357 96.6C326.301 95.544 325.917 94.488 325.917 93.048V28.152C325.917 26.712 326.301 25.656 327.357 24.6L328.317 23.64C329.373 22.584 330.429 22.2 331.869 22.2H332.253C333.693 22.2 334.749 22.584 335.805 23.64L336.765 24.6C337.821 25.656 338.205 26.712 338.205 28.152V48.888C338.205 50.328 338.589 51.384 339.645 52.44L340.605 53.4C341.661 54.456 342.717 54.84 344.157 54.84C345.501 54.84 346.461 54.456 347.517 53.4L365.949 34.968C367.005 33.912 367.389 32.856 367.389 31.416V28.152C367.389 26.712 367.773 25.656 368.829 24.6L369.789 23.64C370.845 22.584 371.901 22.2 373.341 22.2H373.725C375.165 22.2 376.221 22.584 377.277 23.64L378.237 24.6C379.293 25.656 379.677 26.712 379.677 28.152V35.352C379.677 36.792 379.293 37.848 378.237 38.904L358.557 58.584C357.213 59.928 357.213 61.272 358.557 62.616L378.237 82.296C379.293 83.352 379.677 84.408 379.677 85.848V93.048C379.677 94.488 379.293 95.544 378.237 96.6L377.277 97.56C376.221 98.616 375.165 99 373.725 99H373.341C371.901 99 370.845 98.616 369.789 97.56L368.829 96.6C367.773 95.544 367.389 94.488 367.389 93.048V89.784C367.389 88.344 367.005 87.288 365.949 86.232L347.517 67.8C346.461 66.744 345.501 66.36 344.157 66.36C342.717 66.36 341.661 66.744 340.605 67.8L339.645 68.76C338.589 69.816 338.205 70.872 338.205 72.312V93.048C338.205 94.488 337.821 95.544 336.765 96.6L335.805 97.56C334.749 98.616 333.693 99 332.253 99H331.869ZM448.471 99C446.935 99 445.975 98.616 444.919 97.56L431.479 84.12C430.423 83.064 430.039 82.104 430.039 80.568V75C430.039 73.464 430.423 72.504 431.479 71.448L432.439 70.488C433.495 69.432 434.455 69.048 435.991 69.048H436.375C437.911 69.048 438.871 69.432 439.927 70.488L440.887 71.448C441.943 72.504 442.327 73.464 442.327 75C442.327 81.72 448.759 87.48 456.247 87.48H457.591C465.751 87.48 470.935 81.912 470.935 76.056C470.935 75.288 470.839 74.328 469.591 73.176L463.927 67.8C462.871 66.84 461.815 66.36 460.375 66.36H447.799C446.359 66.36 445.303 65.976 444.247 64.92L431.479 52.152C430.423 51.096 430.039 50.04 430.039 48.6V40.632C430.039 39.192 430.423 38.136 431.479 37.08L444.919 23.64C445.975 22.584 447.031 22.2 448.471 22.2H465.367C466.903 22.2 467.863 22.584 468.919 23.64L482.359 37.08C483.415 38.136 483.799 39.096 483.799 40.632V46.2C483.799 47.736 483.415 48.696 482.359 49.752L481.399 50.712C480.343 51.768 479.383 52.152 477.847 52.152H477.463C475.927 52.152 474.967 51.768 473.911 50.712L472.951 49.752C471.895 48.696 471.511 47.736 471.511 46.2C471.511 39.48 465.079 33.72 457.591 33.72H456.247C448.087 33.72 442.903 39.288 442.903 45.144C442.903 45.912 442.999 46.872 444.247 48.024L449.911 53.4C450.967 54.36 452.023 54.84 453.463 54.84H466.039C467.479 54.84 468.535 55.224 469.591 56.28L482.359 69.048C483.415 70.104 483.799 71.16 483.799 72.6V80.568C483.799 82.008 483.415 83.064 482.359 84.12L468.919 97.56C467.863 98.616 466.807 99 465.367 99H448.471ZM506.525 99C505.085 99 504.029 98.616 502.973 97.56L502.013 96.6C500.957 95.544 500.573 94.488 500.573 93.048V28.152C500.573 26.712 500.957 25.656 502.013 24.6L502.973 23.64C504.029 22.584 505.085 22.2 506.525 22.2H506.909C508.349 22.2 509.405 22.584 510.461 23.64L511.421 24.6C512.477 25.656 512.861 26.712 512.861 28.152V48.888C512.861 50.328 513.245 51.384 514.301 52.44L515.261 53.4C516.317 54.456 517.373 54.84 518.813 54.84H536.093C537.533 54.84 538.589 54.456 539.645 53.4L540.605 52.44C541.661 51.384 542.045 50.328 542.045 48.888V28.152C542.045 26.712 542.429 25.656 543.485 24.6L544.445 23.64C545.501 22.584 546.557 22.2 547.997 22.2H548.381C549.821 22.2 550.877 22.584 551.933 23.64L552.893 24.6C553.949 25.656 554.333 26.712 554.333 28.152V93.048C554.333 94.488 553.949 95.544 552.893 96.6L551.933 97.56C550.877 98.616 549.821 99 548.381 99H547.997C546.557 99 545.501 98.616 544.445 97.56L543.485 96.6C542.429 95.544 542.045 94.488 542.045 93.048V72.312C542.045 70.872 541.661 69.816 540.605 68.76L539.645 67.8C538.589 66.744 537.533 66.36 536.093 66.36H518.813C517.373 66.36 516.317 66.744 515.261 67.8L514.301 68.76C513.245 69.816 512.861 70.872 512.861 72.312V93.048C512.861 94.488 512.477 95.544 511.421 96.6L510.461 97.56C509.405 98.616 508.349 99 506.909 99H506.525ZM591.005 99C589.565 99 588.509 98.616 587.453 97.56L574.013 84.12C572.957 83.064 572.573 82.008 572.573 80.568V40.632C572.573 39.192 572.957 38.136 574.013 37.08L587.453 23.64C588.509 22.584 589.565 22.2 591.005 22.2H607.901C609.341 22.2 610.397 22.584 611.453 23.64L624.893 37.08C625.949 38.136 626.333 39.192 626.333 40.632V80.568C626.333 82.008 625.949 83.064 624.893 84.12L611.453 97.56C610.397 98.616 609.341 99 607.901 99H591.005ZM584.861 72.696C584.861 81.24 590.621 87.096 598.781 87.096H600.125C608.285 87.096 614.045 81.24 614.045 72.696V48.504C614.045 39.96 608.285 34.104 600.125 34.104H598.781C590.621 34.104 584.861 39.96 584.861 48.504V72.696ZM666.557 99C665.117 99 664.061 98.616 663.005 97.56L662.045 96.6C660.989 95.544 660.605 94.488 660.605 93.048V39.672C660.605 38.232 660.221 37.176 659.165 36.12L658.205 35.16C657.149 34.104 656.093 33.72 654.653 33.72H645.725C644.285 33.72 643.229 33.336 642.173 32.28L641.213 31.32C640.157 30.264 639.773 29.4 639.773 28.056V27.864C639.773 26.52 640.157 25.656 641.213 24.6L642.173 23.64C643.229 22.584 644.285 22.2 645.725 22.2H687.581C689.021 22.2 690.077 22.584 691.133 23.64L692.093 24.6C693.149 25.656 693.533 26.52 693.533 27.864V28.056C693.533 29.4 693.149 30.264 692.093 31.32L691.133 32.28C690.077 33.336 689.021 33.72 687.581 33.72H678.653C677.213 33.72 676.157 34.104 675.101 35.16L674.141 36.12C673.085 37.176 672.701 38.232 672.701 39.672V93.048C672.701 94.488 672.317 95.544 671.261 96.6L670.301 97.56C669.245 98.616 668.189 99 666.749 99H666.557Z" fill="#C2F751"/>
</svg>
