<?xml version="1.0" encoding="UTF-8"?>
<svg id="Layer_1" xmlns="http://www.w3.org/2000/svg" version="1.1" viewBox="0 0 82 34">
  <!-- Generator: Adobe Illustrator 29.5.1, SVG Export Plug-In . SVG Version: 2.1.0 Build 141)  -->
  <defs>
    <style>
      .st0 {
        fill: #f2f2f2;
      }
    </style>
  </defs>
  <path class="st0" d="M25.69,21.69v.14c.14,2.92.79,7.24-2.92,7.7-2.12.25-4.75-.65-7.16-.83-2.16-.25-4.54-.07-6.7-.79C3.4,26.26.81,19.85,2.5,14.56,4.84,5.49,17.91.38,24.03,8.58c3.1,3.92,1.51,8.68,1.66,13.1ZM15.68,17.62c1.08-.86.83-2.88-.72-2.99-1.22-.18-2.45,1.12-2.12,2.38.25,1.26,1.94,1.48,2.81.65l.04-.04ZM44.36,28.02l-.07-.07c-1.12-1.01-2.23-3.17-3.89-2.05-2.7,2.02-6.37,6.59-9.4,1.94-1.33-2.05-2.09-5.69-2.81-9.18-.83-4.03-1.62-8.1-.83-10.73.43-1.73,2.09-3.42,3.89-3.13,1.91.22,3.28,2.34,4.68,3.42.79.72,1.69.5,2.45-.11,4.68-4,5.76-5.18,10.33-.11,2.09,2.2,4.03-1.51,6.01-2.52,1.87-1.33,4.39-.83,5.04,1.4,1.01,3.74-2.41,9.25-4.57,14.22-1.87,4.18-5.87,12.42-10.84,6.91ZM69.14,25.5c-2.09.43-3.1,3.06-5.26,3.78-5.15,1.55-5.04-5.72-4.46-9.4.83-5.51,1.26-18.43,8.57-14.87,1.51.94,3.02,2.59,4.86,1.62,1.84-.83,4.07-2.45,6.05-2.34,1.94.07,2.95,1.76,2.63,3.74-.47,2.99-2.41,5.9-2.34,9.07-.14,3.42,1.91,6.95.68,10.19-.61,1.44-2.02,2.41-3.6,2.2-1.76-.18-3.56-1.8-4.82-2.84-.9-.72-1.58-1.19-2.27-1.19l-.04.04Z"/>
</svg>