<svg width="813" height="774" viewBox="0 0 813 774" fill="none" xmlns="http://www.w3.org/2000/svg">
<path d="M263.635 380.925L264.223 381.943C277.149 401.979 299.372 429.886 275.058 448.337C261.065 458.792 238.803 463.158 221.009 471.734C204.703 478.771 188.634 489.747 170.417 493.474C124.7 504.253 80.2018 469.516 70.5596 425.179C50.0653 351.462 121.615 261.947 198.415 295.008C236.335 310.119 244.536 350.195 263.635 380.925ZM176.242 393.019C180.353 382.499 170.338 369.27 158.949 374.827C149.557 378.552 146.193 392.716 153.629 400.304C160.556 408.186 173.405 402.805 176.135 393.421L176.242 393.019ZM421.583 349.482L420.78 349.267C408.771 346.695 392.058 335.975 384.903 350.63C374.039 375.913 366.738 423.243 326.387 402.746C308.588 393.672 288.394 371.044 269.043 349.286C246.722 324.151 224.51 298.614 219.38 276.793C215.38 262.808 220.183 244.079 234.089 238.766C248.466 232.502 266.814 241.939 281.154 243.844C289.695 245.702 295.179 240.499 298.027 233.084C314.809 185.712 317.596 172.9 370.659 190.131C394.394 197.137 393.002 162.974 402.889 147.759C410.69 130.695 430.571 123.969 444.268 137.109C466.685 159.473 464.988 212.393 469.997 256.35C473.809 293.529 479.21 368.152 421.583 349.482ZM586.506 230.5C573.502 242.082 577.104 264.784 564.767 278.697C534.679 310.666 505.749 258.793 494.828 230.471C478.193 188.134 428.476 94.965 494.715 90.3305C509.231 90.7764 526.686 96.3145 535.703 81.943C545.307 68.5899 554.478 48.0184 568.922 40.6973C582.965 33.2685 597.003 41.1192 602.797 56.4459C611.688 79.4896 609.846 108.051 623.291 130.163C636.238 154.939 665.157 171.512 669.73 199.425C671.281 212.108 665.321 224.716 653.236 229.656C640.025 235.586 620.679 231.479 607.505 229.24C598.199 227.823 591.451 227.306 586.613 230.099L586.506 230.5Z" fill="#FEE3E5"/>
<path d="M183.503 723.35C174.384 719.273 171.016 708.975 173.467 699.828C176.418 686.526 188.85 672.906 186.04 663.574C183.928 655.451 173.944 651.551 166.73 647.984C97.169 624.035 129.171 536.616 191.096 516.649C204.228 512.611 222.771 511.248 231.066 524.5C238.497 537.929 225.462 556.086 228.599 568.772C230.432 576.412 236.438 580.676 244.173 584.587C255.514 590.281 268.585 595.621 276.935 605.62C316.779 655.102 239.055 740.89 184.164 723.936L183.503 723.35ZM363.378 589.217C356.468 607.381 357.194 638.212 344.166 650.243C324.754 666.283 307.758 649.679 293.985 626.381C286.136 612.228 278.685 594.3 271.411 577.237C262.034 554.301 250.817 529.849 248.913 506.464C246.863 488.963 255.974 467.916 275.606 470.113C292.086 471.874 313.377 489.22 325.386 489.374C328.016 489.467 330.228 488.834 332.263 487.337C343.116 476.56 342.059 456.874 346.563 442.354C349.634 424.795 360.838 407.373 379.727 413.864C403.999 424.657 414.457 457.279 425.219 480.382C438.93 513.058 454.519 547.872 452.547 571.24C452.31 588.129 438.262 603.971 420.516 597.787C404.24 595.264 372.786 564.778 363.721 588.696L363.378 589.217ZM555.186 529.378L554.219 529.936C521.461 548.527 477.662 543.531 452.204 515.059C411.804 472.985 419.784 399.758 461.589 361.125C492.01 330.674 545.1 323.863 578.385 353.614C633.026 399.708 615.741 496.994 555.186 529.378ZM530.052 441.763L530.155 441.382C534.082 429.772 521.782 418.51 511.542 427C504.507 432.672 504.288 445.685 512.785 449.8C519.376 453.404 527.591 448.661 530.052 441.763ZM681.824 234.616C701.704 230.548 716.85 243.388 713.687 263.578C712.372 279.156 703.278 296.327 702.531 315.121C702.013 323.152 702.638 331.489 704.37 339.51C709.183 363.471 722.724 389.157 717.853 414.199C714.049 438.302 684.395 454.457 665.548 434.088C646.989 416.453 641.942 386.506 624.211 368.071C609.008 350.109 581.7 349.123 571.516 331.485C550.571 290.743 650.326 240.882 680.718 234.932L681.824 234.616Z" fill="#FEE3E5"/>
</svg>
