<svg width="462" height="295" viewBox="0 0 462 295" fill="none" xmlns="http://www.w3.org/2000/svg">
<path d="M133.466 105.591V106.299C134.174 120.636 137.36 141.876 119.129 144.177C108.686 145.416 95.765 140.991 83.906 140.106C73.286 138.867 61.604 139.752 50.984 136.212C23.903 128.07 11.159 96.564 19.478 70.545C30.983 25.941 95.234 0.806997 125.324 41.163C140.546 60.456 132.758 83.82 133.466 105.591ZM84.26 85.59C89.57 81.342 88.331 71.43 80.72 70.899C74.702 70.014 68.684 76.386 70.277 82.581C71.516 88.776 79.835 89.838 84.083 85.767L84.26 85.59ZM225.282 136.743L224.928 136.389C219.441 131.433 213.954 120.813 205.812 126.3C192.537 136.212 174.483 158.691 159.615 135.858C153.066 125.769 149.349 107.892 145.809 90.723C141.738 70.899 137.844 50.898 141.738 37.977C143.862 29.481 152.004 21.162 160.854 22.578C170.235 23.64 176.961 34.083 183.864 39.393C187.758 42.933 192.183 41.871 195.9 38.862C218.91 19.215 224.22 13.374 246.699 38.331C256.965 49.128 266.523 30.897 276.258 25.941C285.462 19.392 297.852 21.87 301.038 32.844C305.994 51.252 289.179 78.333 278.559 102.759C269.355 123.291 249.708 163.824 225.282 136.743ZM347.086 124.353C336.82 126.477 331.864 139.398 321.244 142.938C295.933 150.549 296.464 114.795 299.296 96.741C303.367 69.66 305.491 6.11699 341.422 23.64C348.856 28.242 356.29 36.384 365.317 31.605C374.344 27.534 385.318 19.569 395.053 20.1C404.611 20.454 409.567 28.773 407.974 38.508C405.673 53.199 396.115 67.536 396.469 83.112C395.761 99.927 405.85 117.273 399.832 133.203C396.823 140.283 389.92 145.062 382.132 144C373.459 143.115 364.609 135.15 358.414 130.017C353.989 126.477 350.626 124.176 347.263 124.176L347.086 124.353ZM16.115 266.849C12.398 261.716 13.814 254.99 18.062 250.742C23.903 244.37 35.054 240.83 36.47 234.812C37.886 229.679 33.638 224.369 30.806 220.121C0.184999 184.898 45.497 147.02 85.853 155.693C94.349 157.64 104.969 162.773 105.323 172.685C105.146 182.42 92.225 188.261 89.924 196.226C88.508 201.005 90.455 205.253 93.464 209.855C97.889 216.581 103.376 223.661 104.792 231.803C110.987 271.628 41.072 294.107 16.292 267.38L16.115 266.849ZM157.488 250.211C147.93 257.999 138.549 275.168 127.575 277.646C111.822 280.301 107.751 265.787 107.574 248.618C107.751 238.352 109.344 226.139 110.76 214.457C112.884 198.881 114.477 181.889 120.849 168.437C125.274 158.171 136.956 149.498 147.045 156.932C155.541 163.127 161.736 179.411 168.285 183.305C169.701 184.19 171.117 184.544 172.71 184.367C182.091 181.889 187.755 170.738 194.835 164.189C202.092 155.516 213.774 149.498 222.093 159.056C232.005 172.685 227.403 193.925 225.987 210.032C223.155 232.334 220.677 256.406 212.181 268.619C206.694 277.823 193.95 282.071 186.162 273.044C178.02 266.495 170.409 239.768 157.842 250.034L157.488 250.211ZM281.851 278.177H281.143C257.248 278 234.769 261.362 229.813 237.644C220.963 201.713 248.575 164.012 283.798 156.047C310.171 148.967 341.5 162.065 350.35 188.969C365.749 231.626 325.393 279.593 281.851 278.177ZM295.834 222.068L296.011 221.891C301.852 216.758 298.666 206.669 290.347 208.085C284.683 208.97 280.435 216.05 283.798 221.006C286.276 225.077 292.294 225.077 295.834 222.068ZM444.928 156.401C457.141 160.472 461.389 172.331 453.247 182.42C447.583 190.562 437.14 197.111 430.768 207.2C427.936 211.448 425.635 216.227 424.042 221.183C419.086 235.874 418.378 254.282 407.758 266.495C398.023 278.531 376.606 278 372.712 260.831C368.11 245.255 374.836 227.201 370.942 211.448C368.287 196.757 353.596 187.553 353.596 174.632C355.012 145.604 425.635 149.852 444.22 156.224L444.928 156.401Z" fill="#FDE1E4"/>
</svg>
