<svg width="416" height="1014" viewBox="0 0 416 1014" fill="none" xmlns="http://www.w3.org/2000/svg">
<path d="M267.35 702.9L269.15 702.9C305.6 701.1 359.6 693 365.45 739.35C368.6 765.9 357.35 798.75 355.1 828.9C351.95 855.9 354.2 885.6 345.2 912.6C324.5 981.45 244.4 1013.85 178.25 992.7C64.85 963.45 0.949984 800.1 103.55 723.6C152.6 684.9 212 704.7 267.35 702.9ZM216.5 828C205.7 814.5 180.5 817.65 179.15 837C176.9 852.3 193.1 867.6 208.85 863.55C224.6 860.4 227.3 839.25 216.95 828.45L216.5 828ZM346.55 469.47L345.65 470.37C333.05 484.32 306.05 498.27 320 518.97C345.2 552.72 402.35 598.62 344.3 636.42C318.65 653.07 273.2 662.52 229.55 671.52C179.15 681.87 128.3 691.77 95.45 681.87C73.85 676.47 52.7 655.77 56.3 633.27C59 609.42 85.55 592.32 99.05 574.77C108.05 564.87 105.35 553.62 97.7 544.17C47.75 485.67 32.9 472.17 96.35 415.02C123.8 388.92 77.4499 364.62 64.8499 339.87C48.1999 316.47 54.4999 284.97 82.4 276.87C129.2 264.27 198.05 307.02 260.15 334.02C312.35 357.42 415.4 407.37 346.55 469.47ZM315.05 159.799C320.45 185.899 353.3 198.499 362.3 225.499C381.65 289.849 290.75 288.499 244.85 281.299C176 270.949 14.4499 265.549 59 174.199C70.6999 155.299 91.3999 136.399 79.2499 113.449C68.8999 90.4992 48.65 62.5992 49.9999 37.8492C50.9 13.5492 72.0499 0.949193 96.7999 4.99919C134.15 10.8492 170.6 35.1492 210.2 34.2492C252.95 36.0492 297.05 10.3992 337.55 25.6992C355.55 33.3492 367.7 50.8992 365 70.6992C362.75 92.7492 342.5 115.249 329.45 130.999C320.45 142.249 314.6 150.799 314.6 159.349L315.05 159.799Z" fill="#FEE3E5"/>
</svg>
