<svg width="201" height="52" viewBox="0 0 201 52" fill="none" xmlns="http://www.w3.org/2000/svg">
<path d="M27.944 43.1261L27.832 43.0141C26.096 41.4461 24.36 38.0861 21.784 39.8221C17.584 42.9581 11.872 50.0701 7.168 42.8461C5.096 39.6541 3.92 33.9981 2.8 28.5661C1.512 22.2941 0.28 15.9661 1.512 11.8781C2.184 9.19012 4.76 6.55812 7.56 7.00612C10.528 7.34212 12.656 10.6461 14.84 12.3261C16.072 13.4461 17.472 13.1101 18.648 12.1581C25.928 5.94212 27.608 4.09412 34.72 11.9901C37.968 15.4061 40.992 9.63812 44.072 8.07012C46.984 5.99812 50.904 6.78212 51.912 10.2541C53.48 16.0781 48.16 24.6461 44.8 32.3741C41.888 38.8701 35.672 51.6941 27.944 43.1261ZM83.0428 15.9101C84.4428 18.3741 83.5468 21.8461 82.8748 27.0541C81.6428 32.4861 82.5388 44.7501 75.7628 44.9741C74.3068 44.9181 72.9068 44.3021 71.5068 44.0781H71.3388C68.2028 43.6861 65.0668 46.1501 61.4828 45.8141C53.6428 45.3101 48.2107 37.0781 49.4428 29.5741C50.3388 21.5101 57.3948 14.0061 65.6268 13.1101C68.3708 12.9421 70.8908 14.1741 73.5228 14.2301C76.7148 14.4541 81.0828 12.2701 83.0428 15.9101ZM67.5868 31.3661C69.2668 30.0221 68.8748 26.8861 66.4668 26.7181C64.5628 26.4941 62.6588 28.5101 63.1628 30.4141C63.5548 32.3741 66.1868 32.7101 67.5308 31.4781L67.5868 31.3661ZM84.7879 27.1661C85.9639 13.5021 100.02 11.7101 99.0119 26.7741C98.2839 33.1581 97.9479 44.8621 89.6599 44.8061H89.4919C82.0439 43.2941 84.1719 32.8221 84.7879 27.1661ZM88.5399 8.01412C89.7719 1.18212 100.58 0.622118 100.356 8.29412V8.51812C99.5159 16.1901 87.3639 16.6941 88.5399 8.01412ZM119.096 10.8701C120.664 12.6621 122.96 14.2861 122.904 16.3581C122.624 20.2221 117.64 21.7901 116.296 25.2621C113.44 31.5901 116.856 43.2941 107.56 44.8621C105.768 45.0301 103.92 44.2461 102.856 42.7901C99.7763 38.3661 103.864 31.3101 103.752 25.9901C103.808 22.1821 98.8243 20.1101 99.6643 16.1901C100.336 13.4461 103.416 12.4941 105.376 10.8141C107.392 9.24612 108.792 6.55812 111.256 5.83012C114.952 4.48612 117.024 8.29412 118.928 10.7581L119.096 10.8701ZM135.856 8.35012C136.64 10.1981 136.976 12.8861 136.864 15.9661C136.248 23.0781 135.072 44.8061 126.504 45.0861H126.392C119.672 43.6301 122.08 31.1421 122.808 24.7021C123.76 18.2621 124.656 12.3261 127.512 8.12612C129.752 4.65412 134.176 3.87012 135.856 8.35012ZM137.507 27.1661C138.683 13.5021 152.739 11.7101 151.731 26.7741C151.003 33.1581 150.667 44.8621 142.379 44.8061H142.211C134.763 43.2941 136.891 32.8221 137.507 27.1661ZM141.259 8.01412C142.491 1.18212 153.299 0.622118 153.075 8.29412V8.51812C152.235 16.1901 140.083 16.6941 141.259 8.01412ZM175.715 31.2541C176.891 34.3341 176.107 37.8621 173.699 40.1021C171.011 42.6221 167.707 44.5261 164.011 45.1981C154.323 47.0461 145.699 42.0061 157.235 35.1181C158.635 33.9421 157.235 32.4301 156.451 31.2541C155.499 29.8541 154.379 28.1741 153.651 26.3261C152.699 23.9741 153.035 21.2301 154.491 19.1021C161.827 8.35012 184.227 11.0381 172.075 22.6301C171.179 24.0301 172.467 25.4861 173.195 26.7181C173.979 27.9501 174.987 29.5181 175.715 31.2541ZM197.026 10.8701C198.594 12.6621 200.89 14.2861 200.834 16.3581C200.554 20.2221 195.57 21.7901 194.226 25.2621C191.37 31.5901 194.786 43.2941 185.49 44.8621C183.698 45.0301 181.85 44.2461 180.786 42.7901C177.706 38.3661 181.794 31.3101 181.682 25.9901C181.738 22.1821 176.754 20.1101 177.594 16.1901C178.266 13.4461 181.346 12.4941 183.306 10.8141C185.322 9.24612 186.722 6.55812 189.186 5.83012C192.882 4.48612 194.954 8.29412 196.858 10.7581L197.026 10.8701Z" fill="#FEE3E5"/>
</svg>
